<svg xmlns="http://www.w3.org/2000/svg" xmlns:xlink="http://www.w3.org/1999/xlink" width="245" height="50" viewBox="0 0 245 50">
  <defs>
    <clipPath id="clip-path">
      <rect id="Rectangle_3150" data-name="Rectangle 3150" width="245" height="50" transform="translate(-9780 -9458)" fill="#fff" stroke="#707070" stroke-width="1"/>
    </clipPath>
    <clipPath id="clip-path-2">
      <rect id="Rectangle_3094" data-name="Rectangle 3094" width="272.913" height="50"/>
    </clipPath>
  </defs>
  <g id="Mask_Group_36" data-name="Mask Group 36" transform="translate(9780 9458)" clip-path="url(#clip-path)">
    <g id="logo" transform="translate(5848 3000)">
      <path id="Path_28864" data-name="Path 28864" d="M81.935,41.935V35.908H38.345v41.56h6.44v5.857H88.2V41.935Z" transform="translate(-15665.138 -12492.908)" fill="#fff"/>
      <g id="Group_1271" data-name="Group 1271" transform="translate(-15628 -12458)" clip-path="url(#clip-path-2)">
        <path id="Path_28865" data-name="Path 28865" d="M446.3,90.387a3.331,3.331,0,0,1,.8.1c.567.13.825.566.876,1.444.053.825.053,1.545.053,5.569v4.534c0,2.475,0,4.513-.13,5.6-.1.747-.232,1.313-.747,1.418a4.064,4.064,0,0,1-.773.1c-.156,0-.207.08-.207.155,0,.155.129.207.413.207.772,0,2.4-.078,2.526-.078s1.752.078,3.17.078c.282,0,.412-.078.412-.207,0-.076-.051-.155-.206-.155a11.522,11.522,0,0,1-1.16-.1c-.773-.1-.928-.671-1.005-1.418-.129-1.083-.129-3.121-.129-5.6V97.5c0-4.024,0-4.744.052-5.569.051-.9.257-1.34.952-1.468a3.626,3.626,0,0,1,.646-.078c.1,0,.206-.05.206-.156,0-.155-.129-.205-.412-.205-.773,0-2.4.077-2.526.077s-1.754-.077-2.6-.077c-.284,0-.413.05-.413.205,0,.106.1.156.206.156" transform="translate(-388.358 -81.086)" fill="#163a74"/>
      </g>
      <g id="Group_1272" data-name="Group 1272" transform="translate(-15628 -12458)" clip-path="url(#clip-path-2)">
        <path id="Path_28866" data-name="Path 28866" d="M535.319,127.17a4.573,4.573,0,0,0,2.423.439h1.418c.412,0,.541-.052.541-.182a.2.2,0,0,0-.2-.18,4.275,4.275,0,0,1-3.326-1.6c-1.315-1.366-2.886-3.35-4.742-5.67,2.113-1.8,2.783-3.378,2.783-5a3.842,3.842,0,0,0-1.573-2.99,7.424,7.424,0,0,0-4.228-.954c-.7,0-2.6.052-2.834.052-.13,0-1.65-.052-2.68-.052-.259,0-.361.052-.361.179a.221.221,0,0,0,.18.184,6.769,6.769,0,0,1,.773.051c.748.1.877.464.928,1.209.052.7.052,1.314.052,4.72v3.866a44.624,44.624,0,0,1-.129,4.742c-.1.645-.154,1.057-.592,1.161a3.325,3.325,0,0,1-.7.1.176.176,0,0,0-.18.18c0,.13.129.182.361.182.7,0,2.216-.078,2.242-.078.1,0,1.548.078,2.784.078.257,0,.362-.078.362-.182a.162.162,0,0,0-.181-.18,8.524,8.524,0,0,1-1.006-.1c-.7-.1-.825-.516-.9-1.161-.1-.9-.1-2.6-.1-4.716v-.516c0-.128.052-.182.154-.182l2.887.054a.344.344,0,0,1,.309.128c.49.592,1.5,2.009,2.449,3.2,1.289,1.649,2.114,2.705,3.093,3.221m-4.536-7.707a2.941,2.941,0,0,1-1.7.387,7.609,7.609,0,0,1-2.5-.337.321.321,0,0,1-.154-.283v-7.038a.277.277,0,0,1,.179-.255,9.774,9.774,0,0,1,1.624-.13c2.422,0,3.917,1.573,3.917,4.3a3.916,3.916,0,0,1-1.366,3.352" transform="translate(-454.202 -99.182)" fill="#163a74"/>
      </g>
      <g id="Group_1273" data-name="Group 1273" transform="translate(-15628 -12458)" clip-path="url(#clip-path-2)">
        <path id="Path_28867" data-name="Path 28867" d="M640.673,111.033c-.67,0-1.649.052-1.778.052-.284,0-1.314-.052-2.217-.052-.361,0-.516.052-.516.179,0,.106.129.184.259.184a2.647,2.647,0,0,1,.772.077.457.457,0,0,1,.31.464,3.838,3.838,0,0,1-.206.824c-.491,1.573-3.455,9.049-4.769,11.987l-4.279-11.032a9.171,9.171,0,0,1-.619-1.83.366.366,0,0,1,.257-.389,2.8,2.8,0,0,1,.824-.1.213.213,0,0,0,.233-.209c0-.1-.205-.155-.619-.155-.877,0-1.882.052-2.114.052-.283,0-1.573-.052-2.656-.052-.361,0-.593.026-.593.155a.2.2,0,0,0,.181.209,4.42,4.42,0,0,1,.876.077c.746.179,1.057.412,1.572,1.651l5.567,13.427c.439,1.058.593,1.342.85,1.342.232,0,.361-.336.98-1.651.515-1.083,1.521-3.455,2.914-6.65,1.16-2.679,2.267-5.31,2.526-5.927.593-1.5.954-1.805,1.263-2.012a2.119,2.119,0,0,1,1.082-.255c.179,0,.258-.106.258-.209s-.13-.155-.362-.155" transform="translate(-540.708 -99.181)" fill="#163a74"/>
      </g>
      <g id="Group_1274" data-name="Group 1274" transform="translate(-15628 -12458)" clip-path="url(#clip-path-2)">
        <path id="Path_28868" data-name="Path 28868" d="M769.993,127.611c.256,0,.361-.078.361-.182a.176.176,0,0,0-.18-.18,9.487,9.487,0,0,1-1.033-.1c-.67-.1-.747-.516-.824-1.161-.1-.9-.1-2.631-.1-4.742V117.38c0-3.406,0-4.023.025-4.72.052-.771.18-1.083.8-1.21a2.579,2.579,0,0,1,.566-.05.222.222,0,0,0,.182-.184c0-.127-.1-.179-.361-.179-.7,0-2.165.052-2.267.052-.13,0-1.547-.052-2.295-.052-.259,0-.361.052-.361.179a.2.2,0,0,0,.18.184,3.828,3.828,0,0,1,.7.077c.488.1.669.438.721,1.183.051.7.051,1.314.051,4.72v3.866c0,2.111-.025,3.84-.129,4.742-.077.645-.154,1.057-.592,1.161a3.34,3.34,0,0,1-.7.1.176.176,0,0,0-.181.18c0,.13.128.182.36.182.7,0,2.113-.078,2.243-.078.1,0,1.571.078,2.835.078" transform="translate(-662.625 -99.184)" fill="#163a74"/>
      </g>
      <g id="Group_1275" data-name="Group 1275" transform="translate(-15628 -12458)" clip-path="url(#clip-path-2)">
        <path id="Path_28869" data-name="Path 28869" d="M842.611,124.49c1.261,1.159,1.5,1.34,1.725,1.34.155,0,.18-.13.18-1.571l.053-12.838c0-1.314.055-1.75.8-1.907a2.629,2.629,0,0,1,.541-.05.258.258,0,0,0,.258-.209c0-.129-.182-.154-.413-.154-.926,0-1.674.052-1.934.052s-1.338-.052-2.371-.052c-.257,0-.438.026-.438.154,0,.077.026.209.18.209a7.3,7.3,0,0,1,1.11.1c.694.13.824.62.849,2.04l.233,10.979c-.7-.721-3.119-3.324-5.362-5.646-3.506-3.606-6.806-7.115-7.166-7.472-.232-.234-.619-.674-.876-.674-.181,0-.31.234-.31,1.109v12.555c0,1.984-.077,2.577-.643,2.733a3.59,3.59,0,0,1-.929.128.178.178,0,0,0-.181.18c0,.155.13.182.36.182,1.033,0,1.987-.078,2.192-.078s1.108.078,2.4.078c.259,0,.413-.052.413-.182a.177.177,0,0,0-.18-.18,5.356,5.356,0,0,1-1.134-.128c-.619-.156-.826-.7-.876-2.5l-.26-10.337c.7.775,3.248,3.455,5.878,6.212,2.4,2.5,5.673,5.724,5.9,5.928" transform="translate(-717.247 -97.25)" fill="#163a74"/>
      </g>
      <g id="Group_1276" data-name="Group 1276" transform="translate(-15628 -12458)" clip-path="url(#clip-path-2)">
        <path id="Path_28870" data-name="Path 28870" d="M990.133,125.977a18.284,18.284,0,0,0,.309-2.113c0-.155-.024-.333-.156-.333s-.18.076-.231.333a1.663,1.663,0,0,1-1.029,1.52,7.545,7.545,0,0,1-2.27.233c-2.244,0-2.658-.283-2.708-1.753-.026-.438,0-2.99,0-3.736V118.3c0-.078.029-.154.158-.154.384,0,2.807.026,3.425.1.878.1,1.083.362,1.161.671a1.951,1.951,0,0,1,.1.723c0,.128.051.205.155.205.155,0,.207-.231.207-.412,0-.157.051-.98.1-1.42a11.487,11.487,0,0,1,.177-1.21c0-.128-.049-.181-.129-.181s-.18.128-.332.284c-.232.233-.567.257-1.112.309-.514.052-3.5.052-3.787.052-.13,0-.13-.079-.13-.233v-5.955c0-.153.029-.231.13-.231.257,0,2.887.026,3.273.078,1.236.153,1.468.309,1.626.67a2.388,2.388,0,0,1,.128.772c0,.182.052.285.181.285.1,0,.178-.13.2-.231.051-.259.1-1.239.13-1.446a10.365,10.365,0,0,1,.181-1.031c0-.1-.028-.2-.1-.2a1.4,1.4,0,0,0-.309.1c-.181.026-.593.1-1.034.129-.511.026-5.255,0-5.412,0-.128,0-1.6-.052-2.629-.052-.258,0-.362.052-.362.179a.222.222,0,0,0,.179.184,6.8,6.8,0,0,1,.774.051c.75.1.881.464.931,1.209.05.7.05,1.314.05,4.72v3.866a45.131,45.131,0,0,1-.128,4.742c-.1.645-.156,1.081-.6,1.161a6.776,6.776,0,0,1-.695.1.178.178,0,0,0-.184.18c0,.13.133.182.366.182.359,0,.876-.028,1.315-.052.487-.026.928-.026.978-.026.337,0,.93,0,1.881.051.929.028,2.247.078,3.944.078.876,0,1.108,0,1.264-.568" transform="translate(-848.292 -98.067)" fill="#163a74"/>
      </g>
      <g id="Group_1277" data-name="Group 1277" transform="translate(-15628 -12458)" clip-path="url(#clip-path-2)">
        <path id="Path_28871" data-name="Path 28871" d="M1131.321,109.951c.256,0,.362-.412,1.086-1.959.591-1.26,1.75-4.043,3.323-7.8,1.31-3.168,2.6-6.259,2.883-6.982.694-1.752,1.081-2.188,1.416-2.421a2.337,2.337,0,0,1,1.236-.309c.207,0,.306-.052.306-.179s-.154-.181-.435-.181c-.746,0-1.855.077-2.009.077-.312,0-1.493-.077-2.522-.077-.416,0-.568.051-.568.205,0,.129.128.155.282.155a3.26,3.26,0,0,1,.98.1.641.641,0,0,1,.336.592,3.668,3.668,0,0,1-.231.98c-.57,1.854-4.019,10.845-5.514,14.3l-4.946-13.19a9.945,9.945,0,0,1-.7-2.139.519.519,0,0,1,.336-.514,3.017,3.017,0,0,1,.978-.129c.181,0,.258-.052.258-.179s-.232-.181-.694-.181c-.982,0-2.141.077-2.4.077-.309,0-1.775-.077-3.012-.077-.414,0-.67.024-.67.181,0,.1.051.179.2.179a4.017,4.017,0,0,1,.979.1c.9.259,1.286.54,1.855,1.983l6.314,15.793c.489,1.237.616,1.6.924,1.6" transform="translate(-969.737 -81.164)" fill="#163a74"/>
      </g>
      <g id="Group_1278" data-name="Group 1278" transform="translate(-15628 -12458)" clip-path="url(#clip-path-2)">
        <path id="Path_28872" data-name="Path 28872" d="M1260.319,124.939c0-.128-.158-.179-.286-.179a3.16,3.16,0,0,1-.9-.129c-.489-.156-1.1-.438-1.931-2.394-1.39-3.324-5.022-12.366-5.434-13.294-.234-.488-.31-.8-.541-.8-.154,0-.259.13-.54.85l-5.336,13.7c-.437,1.109-.872,1.879-1.9,2.01a6.6,6.6,0,0,1-.67.051.2.2,0,0,0-.208.179c0,.13.155.182.437.182.932,0,2.062-.078,2.3-.078.257,0,1.488.078,2.031.078.2,0,.332-.052.332-.182,0-.1-.049-.179-.228-.179h-.207c-.384,0-.771-.156-.771-.593a4.605,4.605,0,0,1,.332-1.468l1.292-3.5a.234.234,0,0,1,.231-.181h5.229c.127,0,.154.026.2.13l2.036,5.022a.411.411,0,0,1-.208.593c-.1.051-.152.051-.152.155,0,.128.36.128.8.154,1.574.052,3.245.052,3.58.052.257,0,.519-.052.519-.182m-7.111-6.824h-4.588c-.078,0-.1-.05-.078-.157l2.115-6c.128-.334.259-.334.385,0l2.241,6c.029.106.029.157-.074.157" transform="translate(-1074.412 -96.694)" fill="#163a74"/>
      </g>
      <g id="Group_1279" data-name="Group 1279" transform="translate(-15628 -12458)" clip-path="url(#clip-path-2)">
        <path id="Path_28873" data-name="Path 28873" d="M1388.091,124.6c-.129,0-.2.13-.233.285a2.694,2.694,0,0,1-.539,1.235c-.543.645-1.55.669-2.728.669-1.782,0-2.658-.153-3.021-.514-.407-.386-.459-1.7-.459-4.921v-3.915c0-3.4,0-4.018.026-4.713.049-.774.18-1.107.847-1.237.26-.026.594-.05.752-.05a.192.192,0,0,0,.176-.157c0-.127-.127-.181-.359-.181-.7,0-2.4.054-2.5.054-.127,0-1.544-.054-2.576-.054-.253,0-.357.054-.357.181a.219.219,0,0,0,.179.181,7.251,7.251,0,0,1,.773.052c.744.1.874.464.927,1.211.05.695.05,1.315.05,4.713V121.3a44.844,44.844,0,0,1-.128,4.739c-.1.645-.151,1.057-.6,1.161a3.16,3.16,0,0,1-.689.1.176.176,0,0,0-.183.18c0,.129.129.182.359.182.361,0,.851-.028,1.315-.052.435-.026.822-.026.925-.026.675,0,1.446.026,2.474.051,1.055.051,2.321.078,3.943.078,1.21,0,1.287-.078,1.44-.594a13.616,13.616,0,0,0,.337-2.188c0-.233-.052-.336-.154-.336" transform="translate(-1190.31 -99.242)" fill="#163a74"/>
      </g>
      <g id="Group_1280" data-name="Group 1280" transform="translate(-15628 -12458)" clip-path="url(#clip-path-2)">
        <path id="Path_28874" data-name="Path 28874" d="M1486.388,124.6c-.127,0-.2.13-.229.285a2.7,2.7,0,0,1-.542,1.235c-.54.645-1.545.669-2.732.669-1.774,0-2.652-.153-3.015-.514-.412-.386-.46-1.7-.46-4.921v-3.915c0-3.4,0-4.018.023-4.713.051-.774.183-1.107.851-1.237.255-.026.594-.05.747-.05a.194.194,0,0,0,.182-.157c0-.127-.129-.181-.362-.181-.7,0-2.4.054-2.5.054-.13,0-1.55-.054-2.581-.054-.257,0-.358.054-.358.181a.216.216,0,0,0,.181.181,7.27,7.27,0,0,1,.771.052c.747.1.877.464.925,1.211.053.695.053,1.315.053,4.713V121.3a45.306,45.306,0,0,1-.127,4.739c-.1.645-.154,1.057-.593,1.161a3.23,3.23,0,0,1-.694.1.174.174,0,0,0-.18.18c0,.129.13.182.36.182.361,0,.848-.028,1.314-.052.437-.026.824-.026.93-.026.667,0,1.438.026,2.469.051,1.058.051,2.318.078,3.94.078,1.213,0,1.287-.078,1.443-.594a13.814,13.814,0,0,0,.337-2.188c0-.233-.051-.336-.156-.336" transform="translate(-1274.981 -99.242)" fill="#163a74"/>
      </g>
      <g id="Group_1281" data-name="Group 1281" transform="translate(-15628 -12458)" clip-path="url(#clip-path-2)">
        <path id="Path_28875" data-name="Path 28875" d="M1583.939,123.589c-.13,0-.177.08-.23.335a1.673,1.673,0,0,1-1.033,1.522,7.569,7.569,0,0,1-2.265.231c-2.242,0-2.654-.284-2.7-1.752-.027-.438,0-2.987,0-3.734v-1.83c0-.076.024-.153.154-.153.383,0,2.807.024,3.427.1.876.1,1.081.36,1.157.669a1.986,1.986,0,0,1,.1.723c0,.128.055.2.156.2.154,0,.207-.233.207-.41,0-.156.051-.982.1-1.418a11.715,11.715,0,0,1,.18-1.213c0-.127-.05-.179-.129-.179s-.181.129-.337.283c-.231.231-.562.259-1.107.309-.514.05-3.5.05-3.786.05-.127,0-.127-.076-.127-.23v-5.953c0-.151.024-.23.127-.23.257,0,2.885.024,3.272.078,1.238.151,1.469.308,1.621.667a2.327,2.327,0,0,1,.13.773c0,.179.053.283.183.283.1,0,.177-.13.2-.233.053-.256.1-1.236.13-1.443.053-.617.182-.876.182-1.031,0-.1-.029-.205-.106-.205-.1,0-.207.078-.307.1-.182.026-.6.1-1.033.13-.513.024-5.253,0-5.407,0-.129,0-1.6-.054-2.631-.054-.254,0-.357.054-.357.181a.218.218,0,0,0,.177.181,7.4,7.4,0,0,1,.776.052c.748.1.877.464.925,1.211.049.7.049,1.316.049,4.713v3.864a45.44,45.44,0,0,1-.127,4.739c-.1.645-.154,1.081-.591,1.161a6.939,6.939,0,0,1-.7.1.175.175,0,0,0-.181.179c0,.13.127.182.358.182.359,0,.876-.028,1.316-.052.49-.026.927-.026.98-.026.337,0,.925,0,1.88.051.93.028,2.241.078,3.94.078.875,0,1.11,0,1.263-.568a18.441,18.441,0,0,0,.308-2.112c0-.152-.027-.334-.154-.334" transform="translate(-1359.649 -98.126)" fill="#163a74"/>
      </g>
      <g id="Group_1282" data-name="Group 1282" transform="translate(-15628 -12458)" clip-path="url(#clip-path-2)">
        <path id="Path_28876" data-name="Path 28876" d="M1676.059,111.105c-.443,0-2.063.054-2.218.054-.18,0-.98-.054-1.571-.054-.234,0-.361.054-.361.13,0,.1.127.207.334.257a.5.5,0,0,1,.361.566,2.345,2.345,0,0,1-.386,1.135c-.413.719-3.245,5.408-3.709,6.336l-4.124-6.827a1.8,1.8,0,0,1-.308-.85c0-.181.1-.28.284-.36.206-.076.36-.155.36-.233,0-.1-.051-.155-.311-.155-.874,0-1.8.054-1.958.054-.1,0-1.8-.054-2.236-.054-.2,0-.286.054-.286.155a.227.227,0,0,0,.23.207,2.292,2.292,0,0,1,.957.309,5.738,5.738,0,0,1,1.491,1.6c.771,1.159,3.842,6.028,4.019,6.36a3.905,3.905,0,0,1,.49,2.243v1.88c0,.361,0,1.289-.05,2.189-.056.645-.207,1.057-.673,1.161a2.913,2.913,0,0,1-.667.1.177.177,0,0,0-.183.179c0,.13.1.182.36.182.674,0,2.114-.078,2.218-.078.13,0,1.6.078,2.861.078.23,0,.361-.078.361-.182a.178.178,0,0,0-.181-.179,8.617,8.617,0,0,1-1.033-.1c-.667-.1-.821-.516-.875-1.161-.08-.9-.08-1.828-.08-2.189v-1.88a4.383,4.383,0,0,1,.287-2.189c.46-.928,3.659-6.08,4.4-6.955A3.972,3.972,0,0,1,1675,111.75a2.347,2.347,0,0,1,1.06-.283.261.261,0,0,0,.278-.231c0-.077-.124-.13-.278-.13" transform="translate(-1433.915 -99.243)" fill="#163a74"/>
      </g>
      <g id="Group_1283" data-name="Group 1283" transform="translate(-15628 -12458)" clip-path="url(#clip-path-2)">
        <path id="Path_28877" data-name="Path 28877" d="M454.873,284.7c-.118,0-.138.059-.177.235a3.124,3.124,0,0,1-.668,1.4c-.689.687-1.554.785-2.851.785a6.076,6.076,0,0,1-6.235-6.056A5.462,5.462,0,0,1,446.5,276.7c.609-.568,1.67-1.157,3.893-1.157a5.628,5.628,0,0,1,3.4.921,2.181,2.181,0,0,1,.728,1.672c0,.237.019.355.138.355.1,0,.176-.1.2-.355.02-.232.02-1.159.038-1.71.039-.611.079-.806.079-.944,0-.1-.04-.177-.216-.177a12.452,12.452,0,0,1-1.77-.255,16.944,16.944,0,0,0-2.517-.195,7.142,7.142,0,0,0-5.27,1.788,6.6,6.6,0,0,0-1.947,4.561,6.273,6.273,0,0,0,2.1,4.958,8.166,8.166,0,0,0,5.7,1.787,10.228,10.228,0,0,0,3.127-.373c.3-.118.335-.176.433-.491a17.516,17.516,0,0,0,.413-2.144c0-.118-.078-.235-.157-.235" transform="translate(-385.91 -240.29)" fill="#163a74"/>
      </g>
      <g id="Group_1284" data-name="Group 1284" transform="translate(-15628 -12458)" clip-path="url(#clip-path-2)">
        <path id="Path_28878" data-name="Path 28878" d="M608.87,274.854a6.619,6.619,0,0,0-6.863,6.526,6.41,6.41,0,0,0,6.764,6.567,6.7,6.7,0,0,0,6.941-6.822c0-3.894-2.95-6.272-6.842-6.272m.392,12.406c-3.126,0-5.466-2.439-5.466-6.331,0-3.637,2.085-5.449,4.975-5.449,2.734,0,5.171,2.107,5.171,6.114,0,4.84-3.125,5.665-4.68,5.665" transform="translate(-522.656 -240.291)" fill="#163a74"/>
      </g>
      <g id="Group_1285" data-name="Group 1285" transform="translate(-15628 -12458)" clip-path="url(#clip-path-2)">
        <path id="Path_28879" data-name="Path 28879" d="M784.309,286.851c-.1,0-.158.1-.177.214a2.034,2.034,0,0,1-.412.943c-.414.492-1.18.511-2.085.511-1.356,0-2.024-.119-2.3-.392-.314-.3-.354-1.3-.354-3.757v-2.988c0-2.6,0-3.069.02-3.6.04-.591.139-.848.65-.945.2-.018.451-.04.57-.04.058,0,.137-.06.137-.117,0-.1-.1-.138-.276-.138-.531,0-1.828.039-1.907.039-.1,0-1.18-.039-1.967-.039-.2,0-.274.039-.274.138a.17.17,0,0,0,.137.139,5.269,5.269,0,0,1,.59.039c.57.077.668.355.707.925.04.529.04,1,.04,3.6v2.949a34.44,34.44,0,0,1-.1,3.618c-.079.492-.118.806-.453.885a2.375,2.375,0,0,1-.53.078.136.136,0,0,0-.138.14c0,.1.1.138.276.138.275,0,.648-.022,1-.041.335-.021.629-.021.709-.021.511,0,1.1.021,1.887.04.808.041,1.769.059,3.01.059.924,0,.982-.059,1.1-.451a10.655,10.655,0,0,0,.257-1.672c0-.177-.039-.254-.119-.254" transform="translate(-672.469 -241.747)" fill="#163a74"/>
      </g>
      <g id="Group_1286" data-name="Group 1286" transform="translate(-15628 -12458)" clip-path="url(#clip-path-2)">
        <path id="Path_28880" data-name="Path 28880" d="M919.788,286.851c-.1,0-.158.1-.178.214a2.019,2.019,0,0,1-.411.943c-.416.492-1.181.511-2.084.511-1.357,0-2.025-.119-2.3-.392-.318-.3-.354-1.3-.354-3.757v-2.988c0-2.6,0-3.069.02-3.6.038-.591.137-.848.648-.945.2-.018.452-.04.569-.04.061,0,.139-.06.139-.117,0-.1-.1-.138-.275-.138-.528,0-1.829.039-1.907.039-.1,0-1.18-.039-1.966-.039-.2,0-.275.039-.275.138a.17.17,0,0,0,.139.139,5.2,5.2,0,0,1,.587.039c.571.077.669.355.709.925.039.529.039,1,.039,3.6v2.949a34.96,34.96,0,0,1-.1,3.618c-.081.492-.12.806-.454.885a2.348,2.348,0,0,1-.53.078.136.136,0,0,0-.138.14c0,.1.1.138.275.138.275,0,.648-.022,1-.041.333-.021.629-.021.706-.021.512,0,1.1.021,1.889.04.8.041,1.768.059,3.008.059.925,0,.983-.059,1.1-.451a10.766,10.766,0,0,0,.257-1.672c0-.177-.041-.254-.12-.254" transform="translate(-789.168 -241.747)" fill="#163a74"/>
      </g>
      <g id="Group_1287" data-name="Group 1287" transform="translate(-15628 -12458)" clip-path="url(#clip-path-2)">
        <path id="Path_28881" data-name="Path 28881" d="M1054.723,286.091c-.1,0-.139.059-.179.255a1.265,1.265,0,0,1-.786,1.159,5.754,5.754,0,0,1-1.732.177c-1.708,0-2.024-.215-2.064-1.337-.021-.332,0-2.281,0-2.852v-1.4c0-.057.019-.116.118-.116.3,0,2.142.018,2.613.079.67.077.826.276.885.509a1.506,1.506,0,0,1,.078.552c0,.1.043.156.122.156.116,0,.158-.177.158-.313,0-.117.038-.751.078-1.083a9.208,9.208,0,0,1,.138-.922c0-.1-.042-.139-.1-.139s-.14.1-.256.215c-.179.179-.434.2-.848.236-.393.042-2.672.042-2.889.042-.1,0-.1-.062-.1-.179v-4.544c0-.117.019-.176.1-.176.2,0,2.2.018,2.5.059.944.117,1.124.236,1.24.511a1.8,1.8,0,0,1,.1.591c0,.136.041.213.137.213.079,0,.138-.1.156-.174.039-.2.079-.943.1-1.1a7.567,7.567,0,0,1,.14-.785c0-.078-.023-.156-.08-.156a1,1,0,0,0-.237.078c-.136.018-.454.078-.788.1-.39.02-4.011,0-4.128,0-.1,0-1.218-.039-2.006-.039-.2,0-.272.039-.272.138a.168.168,0,0,0,.136.139,5.263,5.263,0,0,1,.589.039c.572.077.669.355.711.925.038.529.038,1,.038,3.6V283.5a34.033,34.033,0,0,1-.1,3.619c-.079.491-.117.826-.453.884a4.653,4.653,0,0,1-.533.078.136.136,0,0,0-.138.14c0,.1.1.138.277.138.275,0,.668-.021,1-.04.376-.021.709-.021.747-.021.258,0,.707,0,1.437.04.707.021,1.712.059,3.006.059.673,0,.849,0,.965-.433a14.019,14.019,0,0,0,.236-1.612c0-.119-.019-.256-.116-.256" transform="translate(-905.885 -240.91)" fill="#163a74"/>
      </g>
      <g id="Group_1288" data-name="Group 1288" transform="translate(-15628 -12458)" clip-path="url(#clip-path-2)">
        <path id="Path_28882" data-name="Path 28882" d="M1193.748,281.457c-.529,0-1.61.043-1.693.043s-1.256-.043-2.043-.043c-.2,0-.277.022-.277.138a.169.169,0,0,0,.14.14,5.557,5.557,0,0,1,.589.041c.708.137.747.334.747,1.689v2.89c0,.316-.139.394-.352.511a4.346,4.346,0,0,1-1.867.316,6.186,6.186,0,0,1-4.427-1.751,6.658,6.658,0,0,1-1.828-4.621,5.2,5.2,0,0,1,1.713-4.209,5.477,5.477,0,0,1,3.616-1.08c2.242,0,3.558.669,3.99,1.3a2.442,2.442,0,0,1,.393,1.1c0,.157.021.254.118.254.119,0,.2-.077.2-.353,0-1.671.095-2.123.095-2.359,0-.08-.037-.16-.213-.16a7.586,7.586,0,0,1-1.4-.176,14.53,14.53,0,0,0-2.654-.273,8.7,8.7,0,0,0-4.6,1.06,6.261,6.261,0,0,0-2.892,5.488,6.387,6.387,0,0,0,2.068,4.758,9.78,9.78,0,0,0,9.378,1.044c.218-.121.234-.14.234-.905v-1.871c0-.707,0-1.2.019-1.727.043-.591.179-.849.653-.925a1.835,1.835,0,0,1,.431-.041.168.168,0,0,0,.137-.14c0-.117-.079-.138-.277-.138" transform="translate(-1021.47 -240.291)" fill="#163a74"/>
      </g>
      <g id="Group_1289" data-name="Group 1289" transform="translate(-15628 -12458)" clip-path="url(#clip-path-2)">
        <path id="Path_28883" data-name="Path 28883" d="M1359.707,286.091c-.1,0-.135.059-.174.255a1.271,1.271,0,0,1-.788,1.159,5.762,5.762,0,0,1-1.731.177c-1.711,0-2.028-.215-2.067-1.337-.019-.332,0-2.281,0-2.852v-1.4c0-.057.02-.116.12-.116.3,0,2.141.018,2.616.079.669.077.824.276.885.509a1.543,1.543,0,0,1,.076.552c0,.1.043.156.117.156.12,0,.161-.177.161-.313,0-.117.039-.751.078-1.083a8.929,8.929,0,0,1,.137-.922c0-.1-.039-.139-.1-.139s-.133.1-.252.215c-.178.179-.432.2-.85.236-.39.042-2.672.042-2.888.042-.1,0-.1-.062-.1-.179v-4.544c0-.117.02-.176.1-.176.2,0,2.206.018,2.5.059.943.117,1.121.236,1.24.511a1.8,1.8,0,0,1,.1.591c0,.136.041.213.139.213.076,0,.137-.1.156-.174.039-.2.079-.943.1-1.1.041-.472.141-.667.141-.785,0-.078-.024-.156-.081-.156a1.063,1.063,0,0,0-.237.078c-.136.018-.452.078-.784.1-.391.02-4.014,0-4.132,0-.1,0-1.218-.039-2.005-.039-.194,0-.274.039-.274.138a.173.173,0,0,0,.139.139,5.357,5.357,0,0,1,.592.039c.57.077.667.355.7.925.04.529.04,1,.04,3.6V283.5a34.592,34.592,0,0,1-.1,3.619c-.078.491-.118.826-.454.884a4.675,4.675,0,0,1-.53.078.135.135,0,0,0-.138.14c0,.1.1.138.278.138.272,0,.664-.021,1-.04.375-.021.707-.021.744-.021.26,0,.709,0,1.436.04.707.021,1.71.059,3.009.059.673,0,.846,0,.964-.433a13.963,13.963,0,0,0,.236-1.612c0-.119-.021-.256-.12-.256" transform="translate(-1168.588 -240.91)" fill="#163a74"/>
      </g>
      <g id="Group_1290" data-name="Group 1290" transform="translate(-15628 -12458)" clip-path="url(#clip-path-2)">
        <path id="Path_28884" data-name="Path 28884" d="M349.169,117.01a44.475,44.475,0,0,1-3.37,4.552c3,.049,4.231-1.9,3.37-4.552" transform="translate(-301.968 -104.329)" fill="#004788"/>
      </g>
      <g id="Group_1291" data-name="Group 1291" transform="translate(-15628 -12458)" clip-path="url(#clip-path-2)">
        <path id="Path_28885" data-name="Path 28885" d="M343.927,306.555c.7-3.226-.212-6.261-3.364-6a5.579,5.579,0,0,0-.557.074c.2.218.372.461.557.694a48.65,48.65,0,0,1,3.364,5.234" transform="translate(-296.978 -262.415)" fill="#004788"/>
      </g>
      <g id="Group_1292" data-name="Group 1292" transform="translate(-15628 -12458)" clip-path="url(#clip-path-2)">
        <path id="Path_28886" data-name="Path 28886" d="M335.76,262.167c-.961-.772-2.093-2.479-3.923-2.5-.036,0-.073.007-.11.008-.935.034-2.049.657-1.975,1.074.65.1,1.316.229,1.975.372,1.466.316,2.9.7,4.033,1.045" transform="translate(-288.143 -227.21)" fill="#004788"/>
      </g>
      <g id="Group_1293" data-name="Group 1293" transform="translate(-15628 -12458)" clip-path="url(#clip-path-2)">
        <path id="Path_28887" data-name="Path 28887" d="M338.9,167.311a5.329,5.329,0,0,0-4.033-1.021,1.922,1.922,0,0,0-1.473,1.27c.474-.073.969-.116,1.473-.143,1.356-.073,2.775-.03,4.033-.106" transform="translate(-291.283 -146.704)" fill="#004788"/>
      </g>
      <g id="Group_1294" data-name="Group 1294" transform="translate(-15628 -12458)" clip-path="url(#clip-path-2)">
        <path id="Path_28888" data-name="Path 28888" d="M113.669,116.975c1.168,1.42,2,3.112,3.422,4.277.966-2.887-1.129-4.387-3.422-4.277" transform="translate(-102.019 -104.294)" fill="#004788"/>
      </g>
      <g id="Group_1295" data-name="Group 1295" transform="translate(-15628 -12458)" clip-path="url(#clip-path-2)">
        <path id="Path_28889" data-name="Path 28889" d="M172.987,221.993c-1.146-1.972-2.4-3.829-3.672-5.675-.9,3.331.7,5.543,3.672,5.675" transform="translate(-149.737 -189.87)" fill="#004788"/>
      </g>
      <g id="Group_1296" data-name="Group 1296" transform="translate(-15628 -12458)" clip-path="url(#clip-path-2)">
        <path id="Path_28890" data-name="Path 28890" d="M114.087,122.707c-.968-1.236-2.089-3.031-3.091-4.509-.5,2.534.312,4.752,3.091,4.509" transform="translate(-99.596 -105.353)" fill="#004788"/>
      </g>
      <g id="Group_1297" data-name="Group 1297" transform="translate(-15628 -12458)" clip-path="url(#clip-path-2)">
        <path id="Path_28891" data-name="Path 28891" d="M156.065,117.008c-1.733.655-3.887,2.382-1.553,4.446a13.146,13.146,0,0,1,1.637-4.364c.042-.083.175-.083-.084-.082" transform="translate(-136.319 -104.328)" fill="#004788"/>
      </g>
      <g id="Group_1298" data-name="Group 1298" transform="translate(-15628 -12458)" clip-path="url(#clip-path-2)">
        <path id="Path_28892" data-name="Path 28892" d="M166.351,118.2a20.591,20.591,0,0,0-1.5,4.339c2.332.107,2.566-2.859,1.5-4.339" transform="translate(-146.104 -105.352)" fill="#004788"/>
      </g>
      <g id="Group_1299" data-name="Group 1299" transform="translate(-15628 -12458)" clip-path="url(#clip-path-2)">
        <path id="Path_28893" data-name="Path 28893" d="M112.624,179.251a3.553,3.553,0,0,0,1.408-.964,39.584,39.584,0,0,0-5.757-.5c.935.783,2.573,2.08,4.349,1.462" transform="translate(-97.373 -156.682)" fill="#004788"/>
      </g>
      <g id="Group_1300" data-name="Group 1300" transform="translate(-15628 -12458)" clip-path="url(#clip-path-2)">
        <path id="Path_28894" data-name="Path 28894" d="M204.72,178.258a25.085,25.085,0,0,0-.335-4.672c-.967,1.185-1.785,3.924.335,4.672" transform="translate(-179.3 -153.062)" fill="#004788"/>
      </g>
      <g id="Group_1301" data-name="Group 1301" transform="translate(-15628 -12458)" clip-path="url(#clip-path-2)">
        <path id="Path_28895" data-name="Path 28895" d="M107.667,167.946c1.9.182,4.141.163,5.989.4-.938-1.87-4.67-1.971-5.989-.4" transform="translate(-96.849 -147.258)" fill="#004788"/>
      </g>
      <g id="Group_1302" data-name="Group 1302" transform="translate(-15628 -12458)" clip-path="url(#clip-path-2)">
        <path id="Path_28896" data-name="Path 28896" d="M215.167,176c-.083-1.232-1.545-1.94-2.169-2.418.282,1.47.389,3.116.669,4.586a2.565,2.565,0,0,0,1.5-2.169" transform="translate(-187.578 -153.061)" fill="#004788"/>
      </g>
      <g id="Group_1303" data-name="Group 1303" transform="translate(-15628 -12458)" clip-path="url(#clip-path-2)">
        <path id="Path_28897" data-name="Path 28897" d="M263.3,136.874c2.751.962,4.11-1.216,3.762-3.624-.974.858-2.157,1.972-3.088,2.836-.3.283-.857.568-.674.788" transform="translate(-230.873 -118.318)" fill="#004788"/>
      </g>
      <g id="Group_1304" data-name="Group 1304" transform="translate(-15628 -12458)" clip-path="url(#clip-path-2)">
        <path id="Path_28898" data-name="Path 28898" d="M341.037,120.172c.054-.054.106-.119.16-.174.889-.916,1.739-2.146,2.531-3.111.293-.361.766-.864.667-1.086a4.943,4.943,0,0,0-3.2,1.566,2.768,2.768,0,0,0-.16,2.8" transform="translate(-297.613 -103.288)" fill="#004788"/>
      </g>
      <g id="Group_1305" data-name="Group 1305" transform="translate(-15628 -12458)" clip-path="url(#clip-path-2)">
        <path id="Path_28899" data-name="Path 28899" d="M262.378,131.455c-2.309.273-4.756.413-4.423,3.335a41.211,41.211,0,0,0,4.423-3.335" transform="translate(-226.276 -116.772)" fill="#004788"/>
      </g>
      <g id="Group_1306" data-name="Group 1306" transform="translate(-15628 -12458)" clip-path="url(#clip-path-2)">
        <path id="Path_28900" data-name="Path 28900" d="M191.323,134.449c.128,2.351.948,4.008,3.674,3.755a47.568,47.568,0,0,0-3.674-3.755" transform="translate(-168.908 -119.351)" fill="#004788"/>
      </g>
      <g id="Group_1307" data-name="Group 1307" transform="translate(-15628 -12458)" clip-path="url(#clip-path-2)">
        <path id="Path_28901" data-name="Path 28901" d="M192.072,131.259c-.048,0,3.816,3.6,4.066,3.627-.177-2.217-1.468-4.052-4.066-3.627" transform="translate(-169.553 -116.55)" fill="#004788"/>
      </g>
      <g id="Group_1308" data-name="Group 1308" transform="translate(-15628 -12458)" clip-path="url(#clip-path-2)">
        <path id="Path_28902" data-name="Path 28902" d="M172.071,215.121c1.418,1.78,2.759,3.637,4.172,5.424.789-3.464-1.6-4.926-4.172-5.424" transform="translate(-152.325 -188.839)" fill="#004788"/>
      </g>
      <g id="Group_1309" data-name="Group 1309" transform="translate(-15628 -12458)" clip-path="url(#clip-path-2)">
        <path id="Path_28903" data-name="Path 28903" d="M241.976,120.642c1.92-.487,1.311-3.951-.083-4.841.015,1.623.137,3.147.083,4.841" transform="translate(-212.467 -103.288)" fill="#004788"/>
      </g>
      <g id="Group_1310" data-name="Group 1310" transform="translate(-15628 -12458)" clip-path="url(#clip-path-2)">
        <path id="Path_28904" data-name="Path 28904" d="M330.916,306.3c.779,1.446,2.686,2.3,4.532,2.519-1-1.443-1.943-2.942-3.031-4.3a16.418,16.418,0,0,0-1.389-1.547,3.5,3.5,0,0,0-.112,3.322" transform="translate(-288.833 -264.515)" fill="#004788"/>
      </g>
      <g id="Group_1311" data-name="Group 1311" transform="translate(-15628 -12458)" clip-path="url(#clip-path-2)">
        <path id="Path_28905" data-name="Path 28905" d="M329.154,274.361a6.334,6.334,0,0,0,4.12-.889c-1.354-.316-2.69-.646-4.12-.882a22.327,22.327,0,0,0-2.393-.283,2.478,2.478,0,0,0,2.393,2.054" transform="translate(-285.569 -238.097)" fill="#004788"/>
      </g>
      <g id="Group_1312" data-name="Group 1312" transform="translate(-15628 -12458)" clip-path="url(#clip-path-2)">
        <path id="Path_28906" data-name="Path 28906" d="M115.131,300.888c-2.568-.37-3.785,1.488-3.738,3.571a5.529,5.529,0,0,0,.4,1.938c.326-.671.684-1.311,1.053-1.938.723-1.231,1.5-2.4,2.286-3.571" transform="translate(-100.058 -262.675)" fill="#004788"/>
      </g>
      <g id="Group_1313" data-name="Group 1313" transform="translate(-15628 -12458)" clip-path="url(#clip-path-2)">
        <path id="Path_28907" data-name="Path 28907" d="M118.645,306.834c-.2.29-.406.58-.6.853-.285.392-.793.69-.75,1.165a6.131,6.131,0,0,0,4.026-2.019,2.429,2.429,0,0,0-.273-3.236c-.827.965-1.636,2.142-2.4,3.236" transform="translate(-105.139 -265.05)" fill="#004788"/>
      </g>
      <g id="Group_1314" data-name="Group 1314" transform="translate(-15628 -12458)" clip-path="url(#clip-path-2)">
        <path id="Path_28908" data-name="Path 28908" d="M253.24,177.562c.29-1.77.615-3.5,1-5.173-1.676.6-3.61,4.2-1,5.173" transform="translate(-221.142 -152.031)" fill="#004788"/>
      </g>
      <g id="Group_1315" data-name="Group 1315" transform="translate(-15628 -12458)" clip-path="url(#clip-path-2)">
        <path id="Path_28909" data-name="Path 28909" d="M280.142,213.934c-2.707.519-6.149,2.111-4.426,5.5a69.753,69.753,0,0,0,4.426-5.5" transform="translate(-241.202 -187.816)" fill="#004788"/>
      </g>
      <g id="Group_1316" data-name="Group 1316" transform="translate(-15628 -12458)" clip-path="url(#clip-path-2)">
        <path id="Path_28910" data-name="Path 28910" d="M287.265,216.318c-1.194,1.894-2.677,3.5-3.842,5.426,3.328.326,4.547-2.264,3.842-5.426" transform="translate(-248.239 -189.87)" fill="#004788"/>
      </g>
      <g id="Group_1317" data-name="Group 1317" transform="translate(-15628 -12458)" clip-path="url(#clip-path-2)">
        <path id="Path_28911" data-name="Path 28911" d="M334.867,179.008a4.881,4.881,0,0,0,4.285-1.807c-1.493.078-2.916.225-4.285.425q-.746.11-1.473.241a2.025,2.025,0,0,0,1.473,1.141" transform="translate(-291.283 -156.176)" fill="#004788"/>
      </g>
      <g id="Group_1318" data-name="Group 1318" transform="translate(-15628 -12458)" clip-path="url(#clip-path-2)">
        <path id="Path_28912" data-name="Path 28912" d="M230.671,120.032a48.129,48.129,0,0,0,.165-4.841c-1.461.982-2.146,3.791-.165,4.841" transform="translate(-201.744 -102.763)" fill="#004788"/>
      </g>
      <g id="Group_1319" data-name="Group 1319" transform="translate(-15628 -12458)" clip-path="url(#clip-path-2)">
        <path id="Path_28913" data-name="Path 28913" d="M114,271.684a33.648,33.648,0,0,0-6.439.915c2.423,1.38,5.755,1.7,6.439-.915" transform="translate(-96.759 -237.56)" fill="#004788"/>
      </g>
      <g id="Group_1320" data-name="Group 1320" transform="translate(-15628 -12458)" clip-path="url(#clip-path-2)">
        <path id="Path_28914" data-name="Path 28914" d="M93.54,88.125v38.966h40.988V88.125Zm38.51,3.418c.528,2.26.422,4.246-1,5.007-.738.392-1.5.109-2.5.417a1.2,1.2,0,0,0-.278.138,10.609,10.609,0,0,0-1.59,1.653,23.022,23.022,0,0,0-1.638,1.8,8.252,8.252,0,0,1,1.336-.169c.625-.648,1.02-1.436,1.892-1.695a1.78,1.78,0,0,1,.194-.056c1.837-.338,3.459,1.049,4.588,1.669a5.4,5.4,0,0,1-4.782,2.2,2.48,2.48,0,0,1-1.808-1.276,7.047,7.047,0,0,0-3.587,1.833c1.314-.407,4.025-1.233,4.587.42a2.985,2.985,0,0,1,.808.065,2.886,2.886,0,0,1,2.319,2.665,2.53,2.53,0,0,1-2.319,2.509c-.036,0-.068.013-.1.013a2.972,2.972,0,0,1-2.617-2.245,2.764,2.764,0,0,1,1.664-3.007c-.844-1.279-3.324-.638-4.42-.166a10.811,10.811,0,0,0-2.337,1.915,32.009,32.009,0,0,0-5.925,6.6q0,2.755-.166,5.34c1.585-1.611,3.207-3.917,4.756-5.839a14.3,14.3,0,0,1-.586-1.5c-.472-3.257,3.135-3.838,5.425-4.593.7,3.679-.39,6.712-4.258,6.345a11.448,11.448,0,0,0-1.5,2.333,19.372,19.372,0,0,1,6.012-.859,5.769,5.769,0,0,0,1.415-.057c.509-.115.9-.8,1.334-1a3.168,3.168,0,0,1,1.308-.315c1.973-.042,3.584,1.9,4.782,3.32a9.625,9.625,0,0,1-4.782.941,2.906,2.906,0,0,1-2.727-2.274,27.84,27.84,0,0,0-3.086.08,13.494,13.494,0,0,1,5,3.59,6.194,6.194,0,0,1,.808-.059c3.571-.041,4.314,3.314,3.532,6.816-2.169-.2-4.453-1.206-5.311-2.852a3.522,3.522,0,0,1,.306-3.571c-1.653-1.714-3.942-3.587-7.178-3.171a1.753,1.753,0,0,1,1.253,1.253,2.9,2.9,0,0,1,2.718,2.562c0,1.62-1.833,2.743-2.78,2.783a3.114,3.114,0,0,1-2.783-2.783,3.206,3.206,0,0,1,2.6-2.562c-.993-1.934-2.438-.6-3.426.165-.838.651-2.271,1.888-2.5,3a7.911,7.911,0,0,0-.047,2.321,11.129,11.129,0,0,1,.047,2.688,3.9,3.9,0,0,1-1.754,0,14.963,14.963,0,0,1,.037-2.688,8.714,8.714,0,0,0-.037-2.152c-.329-1.843-2.415-3.463-3.837-4.341-1.175-.089-2.082.083-2.252,1a3.761,3.761,0,0,1,2.733,2.716,3.148,3.148,0,0,1-1.366,2.774,2.931,2.931,0,0,1-1.528.612,2.529,2.529,0,0,1-1.585-.612,3.72,3.72,0,0,1-1.354-2.746,3.156,3.156,0,0,1,2.848-2.662c.225-.695.648-1.4,1.593-1.374-3.485-1.185-5.861,1.49-7.435,3.292a2.711,2.711,0,0,1,.342,3.49,7.256,7.256,0,0,1-4.847,2.437,7.174,7.174,0,0,1-.467-2.437c-.016-1.882.833-3.571,2.97-3.822a5.376,5.376,0,0,0,1.085,0c.662-.211,1.589-1.768,2.253-2.336a4.939,4.939,0,0,1,3.087-1.416c-.679-.355-1.972-.086-2.92-.17-.654,1.026-1.14,2.188-2.42,2.419-1.914.351-3.522-.972-5.006-1.334,1.047-2.306,5.108-4.224,7.344-1.752a15.132,15.132,0,0,1,7.426,1.253c-.453-.83-.986-1.577-1.5-2.337-3.661.192-5.111-2.776-4-6.344,2.724.686,5.325,1.836,4.925,4.591-.023.408-.3.838-.253,1.251.1.871,1.585,2.224,2.171,3.009.823,1.089,1.348,1.978,2.171,2.916-.416-1.779.32-3.959-.254-5.839-.326-1.081-2.551-3.395-3.336-4.257-.577-.637-1.172-1.257-1.835-1.921a12.2,12.2,0,0,0-1.92-1.833c-1.171-.62-4.131-1.039-5.09-.085a3.421,3.421,0,0,1,2.43,3.4c-.116,1.33-.89,2.623-3.236,2.733a2.609,2.609,0,0,1-2.53-2.631,3.2,3.2,0,0,1,3-3.5,2.019,2.019,0,0,1,.916-.669,5.637,5.637,0,0,1,3.506.087l.361.22c-1-.534-1.378-1.745-3.2-1.725-.717,0-1.276,1.193-2.337,1.335-2.248.3-3.215-1.236-4.672-2.17,1.372-1.8,6.1-2.551,6.964.3.424.051,1.239.181,1.239.181s-2.617-2.593-3.7-3.733c-3.22.4-4.259-2.4-3.42-5.261,2.5.347,4.508.62,4.339,3.59a11.5,11.5,0,0,1-.456,1.221,30.7,30.7,0,0,0,2.939,2.841,20.3,20.3,0,0,0,.018-2.484s-1.214-1.156-1.333-1.743c-.414-2.056,1.687-2.8,3.5-3.424,1.173,1.7,1.074,5.254-1.667,5.092-.632,3.124,1.718,4.756,3.252,6.173,1.321,1.222,2.64,2.24,3.674,3.339a11.569,11.569,0,0,1-.085-1.334c-.455-.508-1-.6-1.334-1.087-1-1.472.373-3.384,1-4.506.987.809,2.931,1.713,2.586,3.507-.164.863-1.042,1.332-1.667,1.918.162,2.339,1.434,3.574,2.586,4.926-.478-2.5.488-6.376-.249-8.51-.446-1.289-1.286-1.871-2.089-2.837-3.147.524-4.116-1.757-4.255-4.509,2.324-.506,4.089.523,4.589,2.336.106.383.081.839.168,1.421.154,1.024,1.7,1.621,1.918,2.5.057-.967.17-3,.17-3s-1.436-1.168-1.587-2.169c-.258-1.693,1.065-2.67,2.086-3.756.321,1.027,1.742,2.02,1.671,3.59-.054,1.139-.839,1.647-1.588,2.334-.063,1.064.138,1.867.086,2.92a14.584,14.584,0,0,1,1.917-2.418c-.6-3.253,2.3-3.7,5.091-3.839-.267,2.076-.273,4.252-2.253,4.591-.66.109-1.326-.363-2.171-.17-1.1.253-2.14,3.009-2.252,4.674-.164,2.4.158,4.727-.167,6.843.926-1.329,1.988-2.518,2.252-4.507-2.8-1.33-.8-5.234,1.337-5.927,1.225,1.314,2.245,5.493-.727,5.939a4.859,4.859,0,0,0-.454,1.887c2.389-2.616,7.7-5.141,7.605-10.243-2.735.068-2.623-3.459-1.754-5.424,2.092.241,5.36,3.293,2.591,5.175a8.392,8.392,0,0,1,0,2.5,18.048,18.048,0,0,0,2.585-2.67,2.67,2.67,0,0,1,.39-3.428,7.51,7.51,0,0,1,3.784-1.579" transform="translate(-84.681 -79.449)" fill="#004788"/>
      </g>
      <g id="Group_1321" data-name="Group 1321" transform="translate(-15628 -12458)" clip-path="url(#clip-path-2)">
        <path id="Path_28915" data-name="Path 28915" d="M308.1,115.8a14.762,14.762,0,0,1,1.86,4.446c2.123-1.446-.155-4.037-1.86-4.446" transform="translate(-269.498 -103.288)" fill="#004788"/>
      </g>
      <g id="Group_1322" data-name="Group 1322" transform="translate(-15628 -12458)" clip-path="url(#clip-path-2)">
        <path id="Path_28916" data-name="Path 28916" d="M265.984,173.586c-.133,1.649-.512,3.334-.676,4.951,2.3-.409,1.885-3.87.676-4.951" transform="translate(-232.636 -153.062)" fill="#004788"/>
      </g>
      <g id="Group_1323" data-name="Group 1323" transform="translate(-15628 -12458)" clip-path="url(#clip-path-2)">
        <path id="Path_28917" data-name="Path 28917" d="M303.677,120.389a10.673,10.673,0,0,0-1.667-4.589c-.647,1.723-.774,5.091,1.667,4.589" transform="translate(-263.904 -103.287)" fill="#004788"/>
      </g>
      <g id="Group_1324" data-name="Group 1324" transform="translate(-15628 -12458)" clip-path="url(#clip-path-2)">
        <path id="Path_28918" data-name="Path 28918" d="M109.4,260.636c-.257.247-.653.578-.584.837a34.806,34.806,0,0,1,6.09-1.337c-1.57-1.678-4.258-.679-5.506.5" transform="translate(-97.837 -226.847)" fill="#004788"/>
      </g>
      <g id="Group_1325" data-name="Group 1325" transform="translate(-15628 -12458)" clip-path="url(#clip-path-2)">
        <path id="Path_28919" data-name="Path 28919" d="M88.254,44.652H47.089V83.787h6.44V50.679H88.254Z" transform="translate(-44.67 -42.003)" fill="#b1b3b5"/>
      </g>
      <g id="Group_1326" data-name="Group 1326" transform="translate(-15628 -12458)" clip-path="url(#clip-path-2)">
        <path id="Path_28920" data-name="Path 28920" d="M133.558,133.342a2.906,2.906,0,0,0,2.727,2.274,9.62,9.62,0,0,0,4.782-.941c-1.2-1.423-2.809-3.361-4.782-3.32a3.177,3.177,0,0,0-1.308.314c-.435.205-.825.888-1.334,1a5.763,5.763,0,0,1-1.415.057,19.35,19.35,0,0,0-6.011.858,11.432,11.432,0,0,1,1.5-2.333c3.868.366,4.959-2.667,4.258-6.345-2.29.755-5.9,1.337-5.426,4.593a14.483,14.483,0,0,0,.585,1.5c-1.548,1.922-3.171,4.228-4.756,5.839.109-1.725.169-3.5.166-5.339a31.991,31.991,0,0,1,5.925-6.6,10.812,10.812,0,0,1,2.338-1.9c1.1-.472,3.577-1.114,4.42.166a2.763,2.763,0,0,0-1.663,3.007,2.971,2.971,0,0,0,2.617,2.245c.037,0,.068-.012.1-.013A2.53,2.53,0,0,0,138.6,125.9a2.886,2.886,0,0,0-2.319-2.665,2.994,2.994,0,0,0-.808-.065c-.562-1.653-3.274-.827-4.588-.42a7.049,7.049,0,0,1,3.588-1.833,2.48,2.48,0,0,0,1.808,1.276,5.4,5.4,0,0,0,4.782-2.2c-1.129-.62-2.751-2.007-4.588-1.668a1.589,1.589,0,0,0-.194.055c-.872.259-1.267,1.046-1.892,1.695a8.3,8.3,0,0,0-1.335.169,23.3,23.3,0,0,1,1.638-1.8,10.617,10.617,0,0,1,1.59-1.652,1.156,1.156,0,0,1,.278-.138c1.006-.308,1.764-.025,2.5-.417,1.427-.762,1.533-2.748,1.005-5.008a7.511,7.511,0,0,0-3.785,1.579,2.67,2.67,0,0,0-.391,3.429A17.987,17.987,0,0,1,133.3,118.9a8.37,8.37,0,0,0,0-2.5c2.769-1.882-.5-4.935-2.591-5.175-.869,1.965-.981,5.493,1.754,5.424.1,5.1-5.216,7.627-7.605,10.243a4.864,4.864,0,0,1,.454-1.887c2.973-.446,1.952-4.625.728-5.939-2.138.693-4.135,4.6-1.338,5.927-.263,1.989-1.326,3.178-2.252,4.507.326-2.115,0-4.442.168-6.843.112-1.666,1.157-4.422,2.252-4.674.844-.194,1.511.279,2.171.17,1.98-.339,1.986-2.516,2.253-4.591-2.792.135-5.688.586-5.091,3.839a14.539,14.539,0,0,0-1.917,2.418c.053-1.054-.148-1.856-.086-2.921.75-.687,1.535-1.195,1.588-2.334.071-1.569-1.35-2.563-1.671-3.589-1.021,1.086-2.343,2.062-2.086,3.756.151,1,1.587,2.168,1.587,2.168s-.114,2.038-.17,3c-.215-.881-1.764-1.478-1.918-2.5-.087-.583-.063-1.038-.168-1.421-.5-1.813-2.265-2.843-4.589-2.336.14,2.753,1.109,5.033,4.255,4.509.8.967,1.643,1.548,2.089,2.837.737,2.134-.229,6,.248,8.51-1.152-1.352-2.423-2.586-2.585-4.925.625-.586,1.5-1.055,1.667-1.918.345-1.794-1.6-2.7-2.586-3.507-.627,1.122-2,3.034-1,4.506.334.492.879.579,1.334,1.087a11.6,11.6,0,0,0,.085,1.334c-1.034-1.1-2.353-2.116-3.674-3.339-1.534-1.418-3.884-3.049-3.252-6.173,2.741.161,2.84-3.394,1.667-5.092-1.817.627-3.917,1.367-3.5,3.424.119.588,1.333,1.743,1.333,1.743a20.292,20.292,0,0,1-.018,2.484,30.624,30.624,0,0,1-2.939-2.84,11.481,11.481,0,0,0,.456-1.221c.169-2.969-1.835-3.243-4.339-3.59-.839,2.862.2,5.659,3.421,5.262,1.079,1.139,3.7,3.733,3.7,3.733s-.815-.13-1.239-.181c-.868-2.853-5.592-2.1-6.964-.3,1.458.934,2.424,2.468,4.672,2.17,1.06-.141,1.62-1.33,2.337-1.335,1.821-.02,2.2,1.192,3.2,1.725,0,0-.359-.22-.361-.22a5.637,5.637,0,0,0-3.506-.088,2.024,2.024,0,0,0-.916.669,3.2,3.2,0,0,0-3,3.5,2.611,2.611,0,0,0,2.531,2.632c2.346-.111,3.12-1.4,3.236-2.734a3.421,3.421,0,0,0-2.43-3.4c.958-.954,3.919-.536,5.089.085a12.225,12.225,0,0,1,1.92,1.833c.663.663,1.258,1.284,1.834,1.92.786.863,3.011,3.177,3.337,4.257.574,1.881-.162,4.061.254,5.839-.823-.939-1.348-1.828-2.171-2.917-.587-.784-2.071-2.137-2.172-3.007-.049-.414.23-.844.253-1.253.4-2.754-2.2-3.906-4.925-4.591-1.106,3.568.344,6.536,4,6.344a27.3,27.3,0,0,1,1.5,2.337,15.131,15.131,0,0,0-7.426-1.253c-2.236-2.471-6.3-.553-7.344,1.751,1.484.363,3.091,1.687,5.006,1.335,1.279-.231,1.765-1.394,2.419-2.419.948.083,2.242-.185,2.92.17a4.94,4.94,0,0,0-3.087,1.416c-.664.567-1.591,2.124-2.253,2.336a5.316,5.316,0,0,1-1.085,0c-2.136.251-2.986,1.941-2.97,3.822a7.163,7.163,0,0,0,.467,2.437,7.258,7.258,0,0,0,4.847-2.437,2.712,2.712,0,0,0-.342-3.49c1.574-1.8,3.95-4.477,7.435-3.292-.945-.022-1.368.679-1.593,1.375a3.155,3.155,0,0,0-2.847,2.661,3.721,3.721,0,0,0,1.354,2.746,2.527,2.527,0,0,0,1.585.612,2.931,2.931,0,0,0,1.528-.612,3.148,3.148,0,0,0,1.366-2.774,3.761,3.761,0,0,0-2.733-2.716c.17-.92,1.077-1.092,2.253-1,1.422.877,3.508,2.5,3.837,4.34a8.739,8.739,0,0,1,.037,2.152,14.927,14.927,0,0,0-.037,2.688,3.9,3.9,0,0,0,1.753,0,11.139,11.139,0,0,0-.046-2.688,7.891,7.891,0,0,1,.046-2.321c.231-1.115,1.664-2.352,2.5-3,.988-.762,2.433-2.1,3.426-.165a3.207,3.207,0,0,0-2.6,2.562,3.115,3.115,0,0,0,2.783,2.783,3.2,3.2,0,0,0,2.78-2.783,2.9,2.9,0,0,0-2.718-2.562,1.754,1.754,0,0,0-1.253-1.253c3.237-.416,5.525,1.457,7.178,3.171a3.52,3.52,0,0,0-.306,3.571c.858,1.646,3.142,2.655,5.311,2.853.782-3.5.039-6.857-3.532-6.816a6.2,6.2,0,0,0-.808.059,13.5,13.5,0,0,0-5-3.59,27.915,27.915,0,0,1,3.086-.08m2.727-1.744c.036,0,.074-.008.11-.008,1.831.02,2.963,1.728,3.923,2.5-1.136-.34-2.567-.729-4.033-1.045-.659-.142-1.325-.27-1.975-.372-.074-.417,1.04-1.04,1.975-1.074m0,2.027c1.429.236,2.766.567,4.12.882a6.334,6.334,0,0,1-4.12.889,2.478,2.478,0,0,1-2.393-2.054,22.089,22.089,0,0,1,2.393.283m-8.4-2.62c1.165-1.926,2.648-3.531,3.842-5.425.705,3.161-.514,5.752-3.842,5.425m3.756-5.756a69.661,69.661,0,0,1-4.426,5.5c-1.723-3.391,1.718-4.983,4.426-5.5m4.645-6.531a5.33,5.33,0,0,1,4.033,1.021c-1.258.077-2.677.033-4.033.106-.5.027-1,.07-1.473.143a1.922,1.922,0,0,1,1.473-1.27m0,1.864c1.369-.2,2.793-.347,4.285-.425a4.881,4.881,0,0,1-4.285,1.807,2.026,2.026,0,0,1-1.473-1.141q.726-.132,1.473-.241m.247-4.218a44.579,44.579,0,0,0,3.37-4.553c.861,2.656-.374,4.6-3.37,4.553m-.247-3.154a4.944,4.944,0,0,1,3.2-1.566c.1.221-.374.725-.667,1.086-.792.965-1.641,2.194-2.531,3.111-.054.055-.106.12-.16.174a2.768,2.768,0,0,1,.16-2.805m-3.119,2.88a14.775,14.775,0,0,0-1.86-4.446c1.705.409,3.984,3,1.86,4.446M130.8,111.65a10.666,10.666,0,0,1,1.667,4.589c-2.441.5-2.314-2.867-1.667-4.589m-5.434,12.962c.165-1.616.544-3.3.677-4.951,1.208,1.081,1.625,4.542-.677,4.951m.427-5.116c-.385,1.674-.71,3.4-1,5.173-2.61-.978-.676-4.574,1-5.173m-.674-1.8c-.183-.22.373-.5.674-.788.931-.864,2.114-1.978,3.088-2.836.349,2.408-1.011,4.586-3.761,3.624m3.677-3.873a41.209,41.209,0,0,1-4.423,3.335c-.333-2.922,2.114-3.062,4.423-3.335m-13.687.415a47.775,47.775,0,0,1,3.674,3.756c-2.726.252-3.547-1.4-3.674-3.756m.1-.389c2.6-.425,3.888,1.41,4.066,3.627-.25-.024-4.114-3.628-4.066-3.627M104.1,111.977c1,1.478,2.122,3.274,3.09,4.509-2.779.242-3.6-1.975-3.09-4.509m.249-.165c2.293-.11,4.388,1.39,3.422,4.277-1.423-1.164-2.255-2.857-3.422-4.277m3.6,9.888c-1.776.619-3.414-.679-4.349-1.462a39.643,39.643,0,0,1,5.756.5,3.545,3.545,0,0,1-1.407.963m-4.433-1.88c1.319-1.573,5.051-1.472,5.989.4-1.849-.236-4.085-.217-5.989-.4m7.927-3.5a20.564,20.564,0,0,1,1.5-4.338c1.064,1.48.83,4.446-1.5,4.338m-.552-.057c-2.334-2.064-.18-3.792,1.553-4.446.259,0,.126,0,.084.082a13.144,13.144,0,0,0-1.636,4.365m6.892,3.4a25.155,25.155,0,0,1,.334,4.672c-2.12-.749-1.3-3.487-.334-4.672m.334,0c.624.477,2.086,1.185,2.169,2.417a2.564,2.564,0,0,1-1.5,2.169c-.28-1.47-.388-3.116-.669-4.586m-5.842,5.924c1.271,1.846,2.526,3.7,3.672,5.675-2.968-.132-4.57-2.344-3.672-5.675m4.34,5.258c-1.413-1.787-2.755-3.643-4.172-5.425,2.574.5,4.961,1.961,4.172,5.425m-12.35,2.083c1.248-1.177,3.936-2.177,5.506-.5a34.789,34.789,0,0,0-6.09,1.336c-.068-.261.327-.59.584-.837m-.766,1.25a33.681,33.681,0,0,1,6.439-.915c-.684,2.616-4.017,2.3-6.439.915m.532,6.745c-.047-2.083,1.171-3.941,3.738-3.571-.782,1.17-1.563,2.34-2.286,3.571-.368.627-.726,1.267-1.053,1.938a5.535,5.535,0,0,1-.4-1.938m4.845,0a6.132,6.132,0,0,1-4.026,2.019c-.043-.475.466-.773.751-1.165.2-.274.4-.563.6-.853.765-1.094,1.574-2.271,2.4-3.236a2.43,2.43,0,0,1,.273,3.236M122.2,116.49c.054-1.695-.068-3.218-.083-4.842,1.394.89,2,4.355.083,4.842m-.416-4.926a48.181,48.181,0,0,1-.165,4.841c-1.981-1.05-1.3-3.86.165-4.841m14.492,25.711c3.151-.26,4.064,2.775,3.364,6a48.654,48.654,0,0,0-3.364-5.234c-.185-.232-.359-.475-.556-.693a5.484,5.484,0,0,1,.556-.074m0,1.869c1.088,1.353,2.03,2.852,3.031,4.294-1.846-.223-3.753-1.072-4.532-2.518a3.5,3.5,0,0,1,.112-3.322,16.475,16.475,0,0,1,1.389,1.547" transform="translate(-92.701 -99.132)" fill="#b1b3b5"/>
      </g>
    </g>
  </g>
</svg>
